<?xml version="1.0" encoding="utf-8"?>
<!-- Generator: Adobe Illustrator 25.2.0, SVG Export Plug-In . SVG Version: 6.00 Build 0)  -->
<svg version="1.1" id="Capa_1" xmlns="http://www.w3.org/2000/svg" xmlns:xlink="http://www.w3.org/1999/xlink" x="0px" y="0px"
	 viewBox="0 0 800 800" style="enable-background:new 0 0 800 800;" xml:space="preserve">
<style type="text/css">
	.st0{fill:#FFFFFF;}
</style>
<g>
	<g>
		<path class="st0" d="M595,512l97.9-383.3H800V68.4H646.1L623,158.8L0,158.3L66.2,512L595,512L595,512L595,512z M607.6,219
			l-59.4,232.7h-432L72.6,218.6L607.6,219z"/>
		<path class="st0" d="M512.5,731.6c53.1,0,96.4-43.2,96.4-96.4c0-53.1-43.2-96.4-96.4-96.4h-363c-53.1,0-96.4,43.2-96.4,96.4
			c0,53.1,43.2,96.4,96.4,96.4s96.4-43.2,96.4-96.4c0-12.8-2.5-24.9-7-36.1h184.4c-4.5,11.2-7,23.3-7,36.1
			C416.2,688.4,459.4,731.6,512.5,731.6z M185.6,635.2c0,19.9-16.2,36.1-36.1,36.1s-36.1-16.2-36.1-36.1c0-19.9,16.2-36.1,36.1-36.1
			C169.4,599.1,185.6,615.3,185.6,635.2z M548.6,635.2c0,19.9-16.2,36.1-36.1,36.1c-19.9,0-36.1-16.2-36.1-36.1
			c0-19.9,16.2-36.1,36.1-36.1C532.4,599.1,548.6,615.3,548.6,635.2z"/>
	</g>
</g>
</svg>
